<?xml version="1.0" standalone="no"?>
<!DOCTYPE svg PUBLIC "-//W3C//DTD SVG 20010904//EN"
 "http://www.w3.org/TR/2001/REC-SVG-20010904/DTD/svg10.dtd">
<svg version="1.0" xmlns="http://www.w3.org/2000/svg"
 width="481.000000pt" height="519.000000pt" viewBox="0 0 481.000000 519.000000"
 preserveAspectRatio="xMidYMid meet">
<metadata>
Created by potrace 1.16, written by Peter Selinger 2001-2019
</metadata>
<g transform="translate(0.000000,519.000000) scale(0.100000,-0.100000)"
fill="#000000" stroke="none">
<path d="M2245 4560 c-193 -30 -371 -125 -563 -300 -55 -50 -147 -154 -197
-222 -17 -24 -44 -34 -180 -72 -145 -40 -314 -97 -467 -156 l-58 -23 0 -76 c0
-169 41 -480 95 -733 32 -144 35 -174 35 -318 0 -87 4 -170 10 -184 5 -14 31
-47 57 -74 l48 -47 -3 -132 -3 -133 75 0 75 0 76 -149 c215 -425 499 -810 846
-1146 124 -120 363 -325 379 -325 26 0 276 216 435 375 316 315 594 700 798
1102 l72 143 47 0 c102 0 131 38 138 180 l5 95 35 1 c74 1 70 -5 70 93 0 50
-4 93 -10 96 -6 4 -10 53 -10 115 0 62 4 111 10 115 6 3 10 47 10 96 0 49 6
122 14 162 41 204 74 474 78 642 l3 100 -90 36 c-152 61 -360 126 -569 179
-109 27 -208 50 -220 50 -43 0 -48 12 -36 80 11 61 11 63 -15 90 -15 15 -44
36 -66 46 -28 12 -47 30 -61 57 -27 54 -101 132 -154 161 -101 57 -158 69
-324 72 -85 2 -193 5 -240 8 -47 3 -112 1 -145 -4z m299 -116 c33 -8 82 -27
109 -40 l48 -25 -12 23 c-6 13 -18 31 -27 41 -14 16 -13 17 10 17 28 0 139
-42 176 -66 79 -52 139 -128 156 -196 5 -23 12 -28 35 -28 42 0 52 -18 35 -65
-7 -22 -14 -41 -14 -42 0 -8 -29 0 -66 17 -38 19 -42 25 -49 68 -14 91 -53
154 -129 204 -53 36 -63 35 -37 -1 33 -46 61 -113 61 -146 0 -30 -1 -30 -73
41 -81 80 -201 146 -296 164 -54 10 -219 14 -210 5 3 -2 45 -16 94 -30 155
-45 277 -121 357 -222 40 -52 42 -63 6 -39 -43 28 -197 66 -266 66 -66 0 -66
0 -42 -17 52 -35 49 -56 -3 -24 -105 65 -254 80 -343 36 -73 -37 -98 -80 -99
-169 l0 -72 -73 -44 c-40 -25 -86 -58 -101 -76 -64 -70 -120 -163 -73 -122 29
27 175 96 217 103 l40 7 -61 -63 c-135 -142 -208 -285 -236 -467 -15 -97 -30
-71 -31 52 -1 93 19 187 50 234 24 38 8 37 -45 -2 -43 -31 -66 -55 -140 -145
-22 -28 -3 74 33 176 37 103 75 170 144 254 40 49 70 75 183 161 23 17 22 17
-27 18 -46 0 -129 -17 -179 -36 -16 -6 -17 -4 -8 12 6 11 41 53 78 92 149 162
312 240 505 243 l54 0 -55 20 c-30 11 -86 23 -123 26 -37 3 -64 9 -60 14 12
11 130 50 183 60 63 11 234 2 304 -17z m-268 -325 c24 -13 54 -32 66 -43 22
-20 22 -21 3 -24 -11 -2 -27 -10 -35 -18 -13 -11 -20 -10 -45 6 -51 34 -103
44 -131 25 -20 -13 -24 -24 -24 -61 0 -38 3 -44 13 -35 11 9 17 3 30 -30 11
-29 25 -44 46 -52 45 -17 38 -27 -16 -27 -91 0 -145 58 -147 156 0 60 21 99
67 120 42 19 115 11 173 -17z m495 -69 c79 -24 76 -24 54 0 -18 19 -17 20 2
20 43 0 150 -41 208 -79 118 -78 167 -151 100 -151 -14 0 -25 -3 -25 -7 1 -5
26 -28 57 -53 73 -58 213 -190 213 -200 0 -5 -37 -10 -82 -13 -46 -2 -93 -7
-105 -11 -15 -6 -27 -2 -43 14 -15 15 -25 19 -32 12 -18 -18 17 -59 72 -87 27
-14 57 -36 66 -50 34 -52 -20 -114 -145 -166 -97 -41 -141 -46 -171 -20 l-25
20 25 1 c14 0 32 5 40 10 11 7 7 10 -19 10 -32 0 -71 23 -71 42 0 4 19 8 43 9
23 0 57 6 75 12 31 12 28 12 -40 12 -40 0 -104 4 -143 8 l-70 8 23 -19 c17
-16 20 -25 13 -44 -4 -12 -5 -35 -1 -49 l8 -27 -41 28 c-23 15 -63 31 -90 35
-36 6 -45 10 -37 20 8 9 -4 15 -48 25 -120 25 -214 105 -228 191 -11 67 -25
29 -25 -66 -1 -80 2 -94 33 -156 19 -38 31 -69 28 -69 -11 0 -83 55 -106 81
-70 81 -95 175 -69 265 31 109 69 170 129 208 47 30 76 61 76 80 0 2 -15 0
-32 -5 -18 -5 -34 -9 -36 -9 -2 0 5 14 15 31 34 58 130 119 188 119 33 0 32
18 -2 26 -25 7 -26 8 -8 16 31 12 154 1 226 -22z m590 -201 c194 -38 582 -158
613 -189 13 -13 -8 -235 -39 -430 -34 -203 -45 -250 -59 -250 -11 0 -11 10 0
50 21 80 53 285 64 410 6 63 12 132 15 152 5 46 7 45 -152 97 -157 52 -281 86
-492 135 -70 17 -76 20 -66 35 8 14 -5 15 116 -10z m-1781 -7 c0 -24 -36 -42
-135 -66 -60 -15 -186 -53 -279 -84 l-168 -57 6 -95 c9 -115 39 -330 65 -460
10 -52 17 -97 15 -99 -30 -31 -74 182 -109 521 -8 81 -15 150 -15 153 0 17
258 103 495 165 128 33 125 32 125 22z m568 -110 c-74 -80 -116 -190 -124
-322 l-5 -85 19 40 c11 22 32 52 48 67 l29 27 2 -65 c4 -127 113 -289 256
-379 41 -26 44 -31 34 -52 -13 -30 -62 -32 -77 -3 -10 19 -21 20 -158 20
l-148 0 -36 38 c-49 50 -79 122 -85 205 -3 37 -9 67 -14 67 -12 0 -79 -143
-80 -171 -1 -13 -5 -35 -9 -49 -6 -15 -8 36 -6 130 2 137 5 163 28 227 49 137
153 251 287 314 31 15 58 25 60 23 3 -2 -7 -17 -21 -32z m1256 -253 c9 -45 -3
-82 -23 -74 -13 5 -14 4 -3 -6 6 -7 12 -24 12 -37 0 -21 -2 -22 -15 -12 -13
11 -15 8 -15 -18 0 -16 -7 -35 -15 -42 -24 -20 -65 23 -65 69 0 44 36 105 76
131 38 26 40 25 48 -11z m-156 -223 c50 -27 76 -103 53 -159 -6 -17 -9 -16
-21 10 l-14 28 -7 -53 c-4 -29 -14 -63 -23 -77 -20 -31 -56 -34 -56 -5 0 12
-8 35 -17 53 l-17 32 -8 -40 c-15 -70 -16 -72 -44 -42 -14 15 -46 38 -73 51
-56 29 -69 43 -77 84 -6 31 -6 32 32 32 41 0 118 32 181 74 42 29 58 31 91 12z
m-882 -94 c32 -21 91 -70 129 -108 l70 -69 -60 -3 -60 -3 -46 53 c-49 55 -117
168 -101 168 5 0 35 -17 68 -38z m-1056 -319 l0 -68 -67 1 c-55 2 -69 5 -71
19 -3 11 -12 15 -30 13 l-27 -3 0 -135 0 -135 28 -3 c19 -2 27 1 27 12 0 13
13 16 70 16 l70 0 0 -65 0 -65 -137 0 c-76 0 -143 4 -149 8 -6 4 -21 23 -33
42 -19 32 -21 50 -21 188 0 157 4 177 43 220 19 21 28 22 159 22 l138 0 0 -67z
m180 -28 l0 -95 30 0 30 0 0 95 0 95 80 0 80 0 0 -45 c0 -25 -4 -45 -10 -45
-6 0 -10 -57 -10 -150 0 -93 4 -150 10 -150 6 0 10 -20 10 -45 l0 -45 -80 0
-80 0 0 95 0 95 -30 0 -30 0 0 -95 0 -95 -80 0 -80 0 0 39 c0 22 5 43 10 46 6
4 10 67 10 155 0 88 -4 151 -10 155 -5 3 -10 24 -10 46 l0 39 80 0 80 0 0 -95z
m550 88 c-1 -33 56 -379 62 -381 4 -2 8 -24 8 -48 l0 -44 -69 0 c-77 0 -69 -9
-87 93 -5 32 -10 37 -34 37 -31 0 -35 -6 -46 -82 l-6 -48 -74 0 -74 0 0 39 c0
21 6 44 14 50 8 6 17 41 21 79 3 37 11 87 16 112 6 25 10 80 10 123 l0 77 129
0 c72 0 130 -3 130 -7z m286 -80 l41 -88 42 88 42 87 79 0 80 0 0 -39 c0 -22
-4 -43 -10 -46 -6 -4 -10 -67 -10 -155 0 -88 4 -151 10 -155 6 -3 10 -24 10
-46 l0 -39 -80 0 -80 0 -1 98 0 97 -22 -42 c-19 -39 -24 -43 -59 -43 -36 0
-40 3 -58 43 l-20 42 0 -97 0 -98 -80 0 -80 0 0 45 c0 25 5 45 10 45 6 0 10
55 10 144 0 86 -4 147 -10 151 -5 3 -10 26 -10 51 l0 44 78 0 77 0 41 -87z
m634 72 c30 -15 30 -16 30 -108 0 -69 -4 -99 -16 -117 -29 -43 -45 -50 -116
-50 l-68 0 0 -95 0 -95 -80 0 -80 0 0 39 c0 22 5 43 10 46 6 4 10 67 10 155 0
88 -4 151 -10 155 -5 3 -10 24 -10 46 l0 39 150 0 c116 0 158 -4 180 -15z
m230 -24 c0 -22 -4 -43 -10 -46 -6 -4 -10 -67 -10 -155 0 -88 4 -151 10 -155
6 -3 10 -24 10 -46 l0 -39 -90 0 -90 0 0 45 c0 25 5 45 10 45 6 0 10 55 10
144 0 86 -4 147 -10 151 -5 3 -10 26 -10 51 l0 44 90 0 90 0 0 -39z m344 8
c36 -42 38 -55 34 -232 l-3 -156 -29 -30 c-30 -31 -31 -31 -135 -31 -58 0
-111 4 -116 8 -6 4 -21 20 -33 36 -21 27 -22 39 -22 187 0 99 -4 159 -10 159
-5 0 -10 20 -10 45 l0 45 149 0 149 0 26 -31z m267 -61 l44 -93 3 93 3 92 79
0 80 0 0 -45 c0 -25 -4 -45 -10 -45 -6 0 -10 -56 -10 -149 0 -89 4 -152 10
-156 6 -3 10 -24 10 -46 l0 -39 -81 0 -80 0 -25 58 c-14 31 -34 75 -44 97
l-19 40 -1 -97 0 -98 -80 0 -80 0 0 39 c0 22 5 43 10 46 6 4 10 67 10 156 0
93 -4 149 -10 149 -5 0 -10 20 -10 45 l0 45 79 0 78 0 44 -92z m-2651 -490 l0
-43 23 40 c16 29 30 41 50 43 33 4 33 -4 5 -63 l-22 -45 22 -45 c28 -58 28
-65 -2 -65 -19 0 -31 11 -50 43 l-26 42 0 -42 c0 -42 -1 -43 -32 -43 l-33 0 0
110 0 110 33 0 c31 0 32 -1 32 -42z m358 -50 c4 -119 -2 -128 -83 -128 l-65 0
1 110 1 111 71 -3 72 -3 3 -87z m174 87 c3 -3 3 -17 0 -30 -3 -18 -11 -25 -28
-25 -13 0 -24 5 -24 10 0 6 -9 10 -20 10 -13 0 -20 -7 -20 -19 0 -16 8 -20 43
-23 41 -3 42 -4 48 -46 9 -70 -6 -86 -79 -90 l-62 -3 0 31 c0 25 4 30 24 30
13 0 26 -5 28 -12 7 -19 38 -1 38 21 0 20 -10 25 -65 33 -16 3 -21 12 -23 52
-2 33 1 52 10 57 14 9 121 12 130 4z m270 -12 c3 -10 3 -24 1 -30 -5 -15 -53
-18 -53 -3 0 6 -7 10 -15 10 -9 0 -15 -9 -15 -25 0 -18 5 -25 20 -25 13 0 20
-7 20 -20 0 -13 -7 -20 -19 -20 -16 0 -20 -8 -23 -42 -3 -40 -5 -43 -33 -46
l-30 -3 0 111 0 110 71 0 c60 0 72 -3 76 -17z m158 -2 c5 -11 10 -53 10 -95 0
-89 -12 -106 -74 -106 -63 0 -73 17 -78 128 l-4 92 68 0 c56 0 69 -3 78 -19z
m172 2 c14 -13 18 -31 18 -87 0 -93 -15 -116 -74 -116 -62 0 -73 17 -79 128
l-4 92 60 0 c42 0 66 -5 79 -17z m168 -3 c0 -13 -7 -20 -20 -20 -19 0 -20 -7
-20 -90 l0 -90 -34 0 -33 0 5 90 c5 87 4 90 -17 90 -14 0 -21 6 -21 20 0 18 7
20 70 20 63 0 70 -2 70 -20z m158 8 c7 -7 12 -44 12 -94 0 -105 -9 -116 -92
-112 l-61 3 -1 108 -1 107 66 0 c37 0 70 -5 77 -12z m166 -10 c10 -48 28 -154
29 -173 2 -15 -5 -21 -26 -23 -23 -3 -28 1 -33 27 -8 41 -41 43 -46 4 -3 -28
-25 -40 -52 -30 -11 4 -11 17 0 69 8 34 14 82 14 106 l0 42 55 0 c49 0 55 -2
59 -22z m113 -67 c2 -78 10 -112 20 -83 7 19 61 15 67 -5 2 -10 4 26 3 80 l-2
97 33 0 32 0 0 -90 c0 -53 4 -90 10 -90 6 0 10 5 10 10 0 6 14 10 30 10 27 0
30 -3 30 -30 l0 -29 -147 0 -148 0 0 110 0 110 30 -3 30 -3 2 -84z m483 59 c0
-25 -4 -30 -24 -30 -13 0 -26 5 -28 12 -2 6 -12 9 -21 5 -13 -5 -17 -19 -17
-67 0 -48 4 -62 17 -67 9 -4 19 -1 21 5 2 7 15 12 28 12 20 0 24 -5 24 -30 0
-30 0 -30 -60 -30 -48 0 -61 4 -70 19 -14 28 -13 174 2 189 7 7 38 12 70 12
58 0 58 0 58 -30z m90 -60 c0 -53 4 -90 10 -90 6 0 10 5 10 10 0 6 14 10 31
10 27 0 30 -3 27 -27 -3 -27 -5 -28 -73 -31 l-70 -3 0 111 0 110 33 0 32 0 0
-90z m152 3 c2 -58 7 -88 16 -91 9 -3 12 19 12 87 l0 91 34 0 33 0 -5 -92 c-6
-121 -10 -128 -72 -128 -69 0 -80 19 -80 132 l0 88 30 0 29 0 3 -87z m252 81
c13 -5 16 -24 16 -99 0 -112 -4 -117 -92 -113 -51 2 -62 6 -58 18 3 8 5 57 5
108 l-1 92 57 0 c32 0 64 -3 73 -6z m-2023 -274 c82 0 99 3 99 15 0 14 3 13
25 -1 19 -12 44 -16 107 -14 151 5 150 6 77 -41 -122 -79 -223 -210 -265 -344
-10 -30 -21 -52 -26 -49 -27 17 -258 401 -258 429 0 3 20 5 44 5 28 0 52 7 67
19 24 19 24 19 27 0 3 -17 12 -19 103 -19z m1451 0 l58 -5 -60 -109 c-72 -129
-172 -286 -182 -286 -5 0 -8 6 -8 14 0 8 -19 52 -42 97 -50 97 -151 206 -238
257 l-55 32 218 0 c193 0 217 2 217 16 0 14 2 15 17 3 9 -8 42 -16 75 -19z
m-1872 -21 c0 -8 73 -143 118 -219 12 -19 29 -48 38 -65 16 -28 100 -158 116
-180 123 -159 211 -305 195 -322 -3 -3 -132 166 -173 226 -16 25 -50 75 -75
111 -88 129 -259 431 -259 459 0 5 9 7 20 4 11 -3 20 -9 20 -14z m2150 15 c0
-10 -112 -220 -148 -279 -17 -27 -47 -77 -67 -110 -54 -91 -236 -348 -242
-342 -7 7 19 77 37 98 11 13 23 29 28 34 4 6 23 33 42 60 18 28 37 52 40 55
11 8 186 291 207 335 20 41 63 121 77 143 8 13 26 17 26 6z m-1127 -44 l83
-30 -11 -86 c-7 -46 -16 -89 -21 -93 -5 -5 -40 -26 -79 -46 -38 -21 -85 -47
-103 -58 l-33 -19 -77 21 c-129 37 -120 27 -110 117 7 73 10 81 42 109 46 40
115 76 223 114 1 1 40 -13 86 -29z m375 -59 c56 -39 120 -106 134 -143 4 -10
2 -52 -4 -93 l-11 -74 -41 -5 c-23 -3 -73 -8 -113 -11 l-71 -5 -93 88 -92 88
14 90 14 89 45 6 c25 3 71 7 103 7 52 2 64 -2 115 -37z m-642 -272 c38 -11 74
-26 80 -32 7 -7 19 -55 29 -107 9 -52 19 -105 21 -116 4 -16 -11 -41 -56 -95
-34 -41 -68 -82 -75 -92 -13 -18 -17 -18 -100 9 -70 23 -90 34 -101 56 -20 39
-44 146 -44 198 0 41 6 51 68 122 44 51 74 77 88 78 12 0 53 -9 90 -21z m810
-165 c24 -52 44 -108 44 -124 0 -26 -63 -163 -92 -202 -17 -23 -196 -43 -215
-25 -6 7 -34 54 -63 106 l-52 94 48 103 c26 57 54 110 63 118 15 14 58 20 174
24 l48 2 45 -96z m-509 -150 c77 -11 111 -21 118 -32 5 -10 31 -56 57 -103
l47 -85 -72 -88 -71 -89 -116 5 c-64 3 -126 10 -138 17 -24 13 -112 178 -112
210 0 11 6 26 13 33 6 7 36 43 66 81 62 76 53 74 208 51z m-37 -410 c93 -6
120 -11 142 -27 15 -11 25 -24 22 -29 -3 -4 -52 -8 -110 -8 -86 0 -119 5 -184
26 -44 15 -80 30 -80 34 0 14 24 19 60 14 19 -2 87 -7 150 -10z m-159 -77 c14
-4 36 -15 50 -27 27 -22 35 -29 97 -83 44 -37 44 -38 71 -21 14 10 31 22 37
28 55 55 139 103 181 106 5 0 -143 -135 -194 -177 l-50 -43 -74 64 c-131 113
-207 189 -174 173 17 -8 42 -17 56 -20z"/>
<path d="M2765 3901 c2 -5 -20 -11 -51 -14 -30 -3 -69 -14 -86 -25 l-30 -19
36 -7 c26 -5 40 -15 51 -35 20 -40 71 -61 147 -61 35 -1 85 -9 113 -19 28 -10
59 -21 70 -25 11 -4 -2 12 -28 36 -46 41 -48 46 -42 80 l7 36 -39 -5 c-31 -4
-49 2 -96 31 -31 19 -55 31 -52 27z"/>
<path d="M3370 2670 l0 -140 30 0 30 0 0 140 0 140 -30 0 -30 0 0 -140z"/>
</g>
</svg>
